HIERARCHY
ROOT Hips
{
	OFFSET 0.0000 0.0000 0.0000
	CHANNELS 6 Xposition Yposition Zposition Zrotation Xrotation Yrotation
	JOINT Ab
	{
		OFFSET -0.0000 8.0846 -0.0000
		CHANNELS 3 Zrotation Xrotation Yrotation
		JOINT Chest
		{
			OFFSET -0.0000 25.0068 -0.0000
			CHANNELS 3 Zrotation Xrotation Yrotation
			JOINT Neck
			{
				OFFSET -0.0000 25.0068 0.0000
				CHANNELS 3 Zrotation Xrotation Yrotation
				JOINT Head
				{
					OFFSET -0.0000 10.7556 0.0000
					CHANNELS 3 Zrotation Xrotation Yrotation
					End Site
					{
						OFFSET -0.0000 16.6222 0.0000
					}
				}
			}
			JOINT LeftCollar
			{
				OFFSET -0.0000 25.0068 0.0000
				CHANNELS 3 Zrotation Xrotation Yrotation
				JOINT LeftShoulder
				{
					OFFSET 19.5556 -0.0000 0.0000
					CHANNELS 3 Zrotation Xrotation Yrotation
					JOINT LeftElbow
					{
						OFFSET 27.1828 0.0000 0.0000
						CHANNELS 3 Zrotation Xrotation Yrotation
						JOINT LeftWrist
						{
							OFFSET 23.3157 0.0000 0.0000
							CHANNELS 3 Zrotation Xrotation Yrotation
							End Site
							{
								OFFSET 0.0000 -14.6667 0.0000
							}
						}
					}
				}
			}
			JOINT RightCollar
			{
				OFFSET -0.0000 25.0068 0.0000
				CHANNELS 3 Zrotation Xrotation Yrotation
				JOINT RightShoulder
				{
					OFFSET -19.5556 0.0000 0.0000
					CHANNELS 3 Zrotation Xrotation Yrotation
					JOINT RightElbow
					{
						OFFSET -27.1828 0.0000 0.0000
						CHANNELS 3 Zrotation Xrotation Yrotation
						JOINT RightWrist
						{
							OFFSET -23.3157 0.0000 0.0000
							CHANNELS 3 Zrotation Xrotation Yrotation
							End Site
							{
								OFFSET -0.0000 -14.6667 0.0000
							}
						}
					}
				}
			}
		}
	}
	JOINT LeftHip
	{
		OFFSET 11.7333 0.0000 0.0000
		CHANNELS 3 Zrotation Xrotation Yrotation
		JOINT LeftKnee
		{
			OFFSET -0.0000 -40.8688 0.0000
			CHANNELS 3 Zrotation Xrotation Yrotation
			JOINT LeftAnkle
			{
				OFFSET -0.0000 -44.4337 0.0000
				CHANNELS 3 Zrotation Xrotation Yrotation
				End Site
				{
					OFFSET -0.0000 -4.8889 16.6222
				}
			}
		}
	}
	JOINT RightHip
	{
		OFFSET -11.7333 0.0000 0.0000
		CHANNELS 3 Zrotation Xrotation Yrotation
		JOINT RightKnee
		{
			OFFSET -0.0000 -40.8688 0.0000
			CHANNELS 3 Zrotation Xrotation Yrotation
			JOINT RightAnkle
			{
				OFFSET -0.0000 -44.4337 0.0000
				CHANNELS 3 Zrotation Xrotation Yrotation
				End Site
				{
					OFFSET -0.0000 -4.8889 16.6222
				}
			}
		}
	}
}
MOTION
Frames: 16
Frame Time: 0.010000
1.8907 84.1243 59.8650 0.7108 353.2743 189.0830 1.4265 6.7305 353.0056 5.8115 7.0521 352.7316 8.9499 339.4031 3.5155 352.7685 8.0312 2.4182 336.4413 357.7333 10.7227 344.3116 57.6158 311.7420 45.1582 346.4951 327.5755 85.6160 354.1034 16.5793 19.2924 358.0972 348.9977 64.7042 27.6185 350.9920 343.7746 356.0509 27.0584 283.2234 353.2283 30.7541 3.7340 8.5349 351.5752 358.9672 11.7871 354.6787 352.1553 339.9598 21.1610 357.1949 320.0630 4.5646 4.7801 36.8893 358.4659 355.9938 351.6227 337.7760 
2.0868 84.2139 59.3139 0.6949 353.1665 189.0345 1.7381 6.7005 352.8760 5.4720 6.9438 352.6460 8.7342 339.6151 3.5453 353.1658 8.0130 2.4841 336.5567 357.7614 10.7249 342.9480 57.2664 313.0454 44.5988 346.5608 327.2167 85.6627 354.1579 16.0645 19.4492 358.1173 349.3318 64.4887 28.2455 351.2590 343.5547 355.9905 26.9971 283.1083 353.2704 30.3551 3.7766 8.5244 351.7187 358.9627 12.1451 354.7531 352.1569 340.3318 21.1621 357.5497 320.1964 4.6693 4.5738 37.1455 358.8404 355.6408 351.3188 337.5677 
2.2749 84.3209 58.7649 0.6828 353.0765 188.9692 1.7879 6.6451 352.9030 5.4190 6.9519 352.6777 8.7222 339.8003 3.6204 353.2820 7.9448 2.5576 336.5786 357.7501 10.8199 341.9461 57.0200 313.9753 44.1401 346.6044 327.0697 85.6599 353.9927 15.5108 19.4703 358.1627 349.6252 64.3193 29.1008 351.6739 343.3218 355.9277 26.9613 282.8190 353.3770 29.7328 3.8169 8.5215 351.9253 358.9580 12.5073 354.7386 352.5074 340.7602 21.3035 357.9278 320.3917 4.7280 4.2900 37.3136 359.2424 355.2396 351.0424 337.3995 
2.4415 84.4411 58.2127 0.6485 353.0107 188.9180 1.8108 6.5757 352.9350 5.3850 6.9496 352.7121 8.6590 339.9309 3.5993 353.3179 7.9525 2.5454 336.5664 357.7684 10.7778 341.0111 56.8710 314.8986 43.6158 346.6808 326.9386 85.5710 353.9953 15.0414 19.5090 358.1965 349.7807 64.0710 29.4812 352.1935 343.1099 355.8764 26.9277 282.7255 353.2636 29.5119 3.8269 8.5256 352.1187 358.9554 12.8517 354.8173 352.1577 340.9851 21.3237 358.1890 320.6475 4.7509 4.1155 37.4103 359.4977 354.9892 350.7367 337.3388 
2.6146 84.5894 57.6678 0.6577 352.9217 188.8707 1.8405 6.4596 352.9829 5.3649 6.9451 352.7611 8.6132 339.9971 3.5928 353.3587 8.0544 2.5549 336.6356 357.8037 10.5471 338.7627 56.2810 317.0069 42.6946 346.8518 326.1354 86.0799 354.5032 14.4670 19.5452 358.2234 349.9044 63.7848 29.7928 352.7471 342.8949 355.8130 27.0247 282.7129 353.2799 29.3337 3.8822 8.4999 352.3170 358.9511 13.0724 354.8211 352.3881 341.2363 21.6421 358.5227 320.9289 4.8010 3.8835 37.4006 359.8209 354.7314 350.4881 337.2140 
2.7358 84.6797 57.3435 0.6598 352.8572 188.8706 1.8467 6.3654 353.0136 5.3503 6.9606 352.7907 8.5786 339.9890 3.5696 353.4016 8.1111 2.5368 336.6704 357.8208 10.4712 337.8720 56.1190 317.8076 42.3320 346.8106 325.8297 86.2116 354.6538 14.1535 19.5552 358.2491 349.9378 63.6027 29.9363 353.1200 342.7752 355.7819 27.0834 282.6608 353.3085 29.2508 3.9237 8.4653 352.4318 358.9449 13.1612 354.8721 352.4208 341.4289 21.7616 358.7108 321.1059 4.8230 3.7424 37.3651 0.0019 354.5852 350.3497 337.1302 
2.8419 84.7861 57.0299 0.6302 352.7788 188.8411 1.8331 6.2657 353.0604 5.3015 6.9280 352.8395 8.5235 340.0503 3.5295 353.4491 8.0861 2.5046 336.6825 357.8357 10.4441 337.2117 56.0114 318.4137 41.9937 346.7771 325.7783 86.0301 354.6259 13.6470 19.5619 358.2736 349.9874 63.4549 30.0559 353.4805 342.6050 355.7457 27.1314 282.5870 353.2394 29.1450 3.9046 8.4242 352.5972 358.9698 13.1025 354.9068 352.2535 341.6625 21.7125 358.8621 321.2913 4.8666 3.6192 37.2923 0.1931 354.3458 350.2127 337.0200 
3.0531 85.0952 56.1436 0.5396 352.6224 188.6644 1.7859 6.0501 353.1836 5.2184 6.8553 352.9648 8.3723 340.2753 3.5114 353.5606 8.0871 2.5307 336.7191 357.8636 10.3919 334.7198 55.3924 320.7821 40.8654 347.1825 325.5597 85.6481 354.7146 12.4354 19.5849 358.2883 350.2523 63.0810 30.5706 354.5088 342.1385 355.5737 27.2498 282.1768 353.0891 28.7651 3.7867 8.3289 352.9642 359.0185 12.9612 354.9381 352.5966 342.1559 21.8232 359.3057 321.8573 4.9842 3.2083 37.0910 0.8277 353.5101 349.8423 336.7112 
3.1994 85.3211 55.6516 0.5367 352.3433 188.6584 1.7626 5.8180 353.2601 5.1843 6.6966 353.0460 8.2405 340.3632 3.3832 353.5472 8.0577 2.4173 336.7096 357.8580 10.3027 333.5999 55.1377 321.8591 40.0651 347.3951 325.7024 85.3889 354.5512 11.5337 19.6007 358.3142 350.2670 62.8126 30.8390 355.2778 341.7351 355.4374 27.4199 281.9938 353.1383 28.1951 3.7436 7.8766 353.1782 359.1037 12.8531 354.9058 352.7326 342.4400 21.6863 359.5283 322.0766 5.1127 3.0437 36.8402 1.0448 353.2776 349.6358 336.6078 
3.3316 85.5501 55.1143 0.4851 352.3284 188.6108 1.5421 5.7081 353.4421 5.3397 6.7999 353.2014 8.2314 340.2957 3.2942 353.4259 8.0818 2.3342 336.6991 357.9087 9.9267 331.1192 54.0013 324.2187 38.7013 347.7705 324.9391 85.3590 354.5927 10.3726 19.5281 358.3361 350.3043 62.6358 31.1295 356.0851 341.2390 355.2785 27.5802 281.7734 353.1101 27.5964 3.6965 7.7581 353.2275 359.1106 12.5777 355.0432 352.3426 342.5166 21.4180 359.7663 322.6672 5.2383 2.8239 36.4345 1.3354 353.0852 349.4382 336.4562 
3.4659 85.7920 54.6303 0.4293 352.1877 188.5871 1.4410 5.5518 353.5637 5.3119 6.7366 353.3203 8.1324 340.2391 3.1521 353.3586 8.1497 2.2099 336.6672 357.9430 9.8333 330.0978 53.6475 325.2455 37.8598 347.9498 324.8956 85.1677 354.6608 9.4789 19.4826 358.3615 350.3943 62.5980 31.4009 356.6941 340.6900 355.1016 27.7391 281.3568 352.9933 26.7828 3.6148 7.3539 353.1974 359.0858 12.4441 355.1135 352.5295 342.7229 21.4427 359.9357 323.1121 5.3498 2.6967 36.0025 1.3227 352.7757 349.2148 336.4126 
3.5981 86.0347 54.1378 0.3628 352.1383 188.5816 1.4854 5.4951 353.6181 5.0929 6.5607 353.3969 7.8508 340.3308 2.9554 353.5465 8.1315 2.0557 336.7231 357.9741 9.7464 328.6732 53.2580 326.6759 37.1022 348.1249 324.7768 84.8544 354.7070 8.6454 19.5592 358.3731 350.5378 62.4199 31.8092 357.2267 340.1733 354.9347 27.8910 280.8273 352.7832 25.6569 3.5478 6.9784 353.0876 359.0328 12.3516 355.0588 352.6101 342.8910 21.6037 0.0818 323.7023 5.4497 2.5823 35.4641 1.3005 352.6205 348.9814 336.3904 
3.7313 86.2701 53.6299 0.2840 352.1916 188.5810 1.4923 5.4897 353.6918 4.9013 6.4569 353.4864 7.5769 340.4282 2.7914 353.7767 8.0515 1.9299 336.8446 358.0293 9.4613 326.1583 52.1224 329.1854 35.9414 348.4069 324.0295 84.6560 354.8278 7.4672 19.6120 358.3755 350.7211 62.2422 32.2495 357.7804 339.6283 354.7568 28.1001 280.3463 352.5887 24.4493 3.5023 6.6907 352.9725 358.9565 12.2072 355.1181 352.5570 343.1804 21.5709 0.2228 324.4431 5.5436 2.4641 34.8607 1.3109 352.4595 348.8104 336.3407 
3.8435 86.5021 53.1497 0.2040 352.2223 188.5148 1.4547 5.4379 353.8393 4.7382 6.4468 353.6409 7.3988 340.4386 2.6687 353.9000 7.9774 1.8275 336.9660 358.0974 9.1791 323.7560 50.7474 331.5457 34.6240 348.6926 323.2021 84.4397 354.9601 5.9513 19.6208 358.4017 350.9183 62.0418 32.6518 358.4309 339.1642 354.6025 28.3350 279.7713 352.4232 23.2570 3.3987 6.3045 352.9650 358.9356 12.1264 355.1006 352.7196 343.4827 21.7061 0.3709 325.1316 5.6197 2.3175 34.2500 1.2916 352.4970 348.6429 336.4156 
3.9435 86.7369 52.7042 0.1228 352.1475 188.4319 1.4005 5.2814 354.0136 4.5697 6.4445 353.8203 7.2192 340.4243 2.5151 353.9807 7.9058 1.6903 337.0530 358.1551 8.9669 321.9742 49.5979 333.3135 33.3693 348.9698 322.6451 84.3764 355.0211 4.5117 19.6224 358.4288 351.0694 61.7794 33.0581 359.1526 338.7299 354.4484 28.6175 279.2462 352.3241 21.9764 3.2448 5.7052 353.0549 358.9530 12.1439 355.0848 352.6454 343.6280 21.7769 0.4846 325.6854 5.6404 2.1447 33.6418 1.3615 352.5275 348.4889 336.4769 
4.0423 86.9643 52.2512 0.0369 352.1155 188.3558 1.4101 5.1663 354.1546 4.3078 6.3889 353.9775 6.9473 340.4604 2.3273 354.1740 7.8257 1.5320 337.1296 358.2020 8.8628 320.6622 48.7117 334.6815 32.2114 349.2406 322.3470 84.3983 354.9773 3.2322 19.6614 358.4541 351.2318 61.5029 33.4619 359.8181 338.3474 354.2969 28.9519 278.6511 352.2709 20.8141 3.1075 5.1285 353.0971 358.9489 12.1386 355.1917 352.3066 343.7715 21.6561 0.5746 326.3112 5.6468 1.9924 32.9926 1.4993 352.4757 348.3545 336.4590 
